<?xml version="1.0" encoding="UTF-8" standalone="no"?>
<!-- Created with Inkscape (http://www.inkscape.org/) -->

<svg
   xmlns:dc="http://purl.org/dc/elements/1.1/"
   xmlns:cc="http://creativecommons.org/ns#"
   xmlns:rdf="http://www.w3.org/1999/02/22-rdf-syntax-ns#"
   xmlns:svg="http://www.w3.org/2000/svg"
   xmlns="http://www.w3.org/2000/svg"
   xmlns:sodipodi="http://sodipodi.sourceforge.net/DTD/sodipodi-0.dtd"
   xmlns:inkscape="http://www.inkscape.org/namespaces/inkscape"
   width="210mm"
   height="242mm"
   viewBox="0 0 210 242"
   version="1.1"
   id="svg8"
   inkscape:version="0.92.1 r"
   sodipodi:docname="logokc.svg"
   inkscape:export-filename="/Users/parthsingh/logokc.png"
   inkscape:export-xdpi="96"
   inkscape:export-ydpi="96">
  <defs
     id="defs2" />
  <sodipodi:namedview
     id="base"
     pagecolor="#ffffff"
     bordercolor="#666666"
     borderopacity="1.0"
     inkscape:pageopacity="0.0"
     inkscape:pageshadow="2"
     inkscape:zoom="0.35355339"
     inkscape:cx="-187.57892"
     inkscape:cy="212.83852"
     inkscape:document-units="mm"
     inkscape:current-layer="layer1"
     showgrid="false"
     showborder="true"
     showguides="true"
     inkscape:window-width="1436"
     inkscape:window-height="856"
     inkscape:window-x="0"
     inkscape:window-y="22"
     inkscape:window-maximized="0"
     inkscape:guide-bbox="true">
    <sodipodi:guide
       position="64.558333,504.29583"
       orientation="0,1"
       id="guide4562"
       inkscape:locked="false" />
    <sodipodi:guide
       position="167.74583,460.375"
       orientation="0,1"
       id="guide6126"
       inkscape:locked="false" />
  </sodipodi:namedview>
  <metadata
     id="metadata5">
    <rdf:RDF>
      <cc:Work
         rdf:about="">
        <dc:format>image/svg+xml</dc:format>
        <dc:type
           rdf:resource="http://purl.org/dc/dcmitype/StillImage" />
        <dc:title></dc:title>
      </cc:Work>
    </rdf:RDF>
  </metadata>
  <g
     inkscape:label="Layer 1"
     inkscape:groupmode="layer"
     id="layer1"
     transform="translate(0,-55)">
    <path
       style="color:#000000;font-style:normal;font-variant:normal;font-weight:normal;font-stretch:normal;font-size:medium;line-height:normal;font-family:sans-serif;font-variant-ligatures:normal;font-variant-position:normal;font-variant-caps:normal;font-variant-numeric:normal;font-variant-alternates:normal;font-feature-settings:normal;text-indent:0;text-align:start;text-decoration:none;text-decoration-line:none;text-decoration-style:solid;text-decoration-color:#000000;letter-spacing:normal;word-spacing:normal;text-transform:none;writing-mode:lr-tb;direction:ltr;text-orientation:mixed;dominant-baseline:auto;baseline-shift:baseline;text-anchor:start;white-space:normal;shape-padding:0;clip-rule:nonzero;display:inline;overflow:visible;visibility:visible;opacity:1;isolation:auto;mix-blend-mode:normal;color-interpolation:sRGB;color-interpolation-filters:linearRGB;solid-color:#000000;solid-opacity:1;vector-effect:none;fill:#000000;fill-opacity:1;fill-rule:nonzero;stroke:none;stroke-width:7;stroke-linecap:butt;stroke-linejoin:miter;stroke-miterlimit:4;stroke-dasharray:none;stroke-dashoffset:0;stroke-opacity:1;color-rendering:auto;image-rendering:auto;shape-rendering:auto;text-rendering:auto;enable-background:accumulate"
       d="m 106.00335,71.77297 c -3.94453,-0.0301 -7.71959,1.526451 -10.359576,4.370766 -2.607019,2.808792 -3.872632,6.555031 -3.858678,10.375036 0.01633,4.460922 1.859698,8.610589 4.940781,11.959992 -0.769837,3.293446 -4.145047,15.555296 -5.214667,18.527556 -1.377006,3.8264 -2.838162,6.92861 -4.090189,8.97516 -0.599882,0.98056 -1.189651,1.7285 -1.63246,2.21227 -0.0507,0.0554 -0.08398,0.0722 -0.135909,0.12195 -0.350811,-0.0965 -1.497052,-0.27178 -3.349149,-1.80712 -0.373451,-0.30958 -3.883874,-3.89516 -6.279202,-6.69985 -0.632606,-0.74072 -1.041625,-1.27961 -1.568898,-1.93167 1.423774,-3.19079 1.666994,-6.63833 1.082623,-9.76788 -0.695357,-3.72386 -2.693469,-7.65543 -6.573761,-9.992668 -6.822022,-4.109093 -15.532151,-1.439712 -19.650996,5.104598 -1.460867,2.32095 -2.086694,5.11902 -2.086694,8.18503 0,3.04109 0.615377,5.81414 2.019515,8.15041 1.315431,2.1887 3.102317,3.65647 4.734078,4.71961 0.522703,0.34056 1.096164,0.62742 1.677417,0.90278 -0.008,0.69537 0.0087,0.92201 -0.02739,2.13476 -0.205676,6.92062 -0.796893,9.57411 -1.965255,11.93777 -0.447602,0.90552 -0.385432,0.71931 -0.401009,0.70125 -0.04256,0.0217 -0.297608,0.0668 -1.23765,-0.18604 -1.027752,-0.27644 -6.289776,-2.71563 -11.12852,-5.92573 -0.889864,-0.59035 -1.341634,-0.91738 -1.856217,-1.28106 0.217926,-2.52807 0.0484,-5.07926 -0.837675,-7.53081 -1.094304,-3.02768 -3.235994,-5.59606 -6.077665,-7.19232 -3.464112,-1.9459 -7.613757,-2.55275 -11.535213,-1.3901 v 5.2e-4 c -2.762185,0.81898 -4.722254,2.48969 -6.138644,3.96203 -1.170198,1.21643 -2.549707,2.98412 -3.291271,5.35316 -0.04835,0.072 -0.05839,0.0664 -0.117823,0.16175 -0.545247,0.87496 -0.845897,1.85952 -0.927075,2.16627 -0.2543883,0.96127 -0.3255623,1.89463 -0.3255623,2.63602 0,0.80663 0.09441,1.83514 0.4082443,2.87166 0.09241,0.30518 0.410626,1.10141 0.885218,1.88464 0.321705,1.08314 0.732442,2.06454 1.179772,2.86804 0.732473,1.31567 1.740854,2.88996 3.375505,4.26279 2.376816,1.99615 5.227017,3.07416 8.140071,3.31039 0.542248,1.40814 1.105696,2.88317 2.059823,5.62291 1.928231,5.53687 11.077002,30.75283 16.74058,46.23444 v 41.44295 h 0.490409 c 2.828663,31.32467 30.313425,55.75445 63.394582,55.75435 33.08116,10e-5 60.56738,-24.42957 63.39613,-55.75435 h 0.49041 v -40.27454 c 1.13663,-3.02835 2.34085,-6.23485 3.12384,-8.29769 1.21335,-3.19665 2.62815,-7.06677 3.283,-9.02012 0.47425,-1.41457 1.89205,-5.3103 2.99052,-8.17936 1.24394,-3.24898 3.5205,-9.80856 5.24102,-15.05801 2.1787,-6.64751 3.51348,-10.57611 4.30775,-12.86125 0.11239,-0.32335 0.14201,-0.39991 0.23358,-0.66043 0.70227,0.002 1.41898,-0.0324 2.18746,-0.14417 1.70234,-0.24756 3.09036,-0.85519 4.18889,-1.47227 6.16564,-3.46342 7.92821,-10.45509 6.98769,-16.06206 -0.95303,-5.68159 -5.18291,-11.85682 -12.37961,-12.51397 -3.73266,-0.34082 -7.48261,0.70798 -10.38696,3.08198 -2.85444,2.33322 -4.60569,5.63622 -5.37641,9.16895 -0.43049,1.97318 -0.19218,3.5988 -0.0548,4.6824 0.0121,0.0958 0.0323,0.14172 0.046,0.2341 -0.58228,0.3925 -1.227,0.82167 -2.14974,1.39785 -8.61206,5.37751 -11.29092,6.47306 -11.76776,6.56807 -0.64297,0.1281 -0.75626,0.0969 -0.7586,0.10129 0.041,0.0181 -0.93802,-1.16797 -1.56994,-3.83388 -0.49017,-2.06792 -0.58119,-3.11048 -0.632,-8.40982 l -0.0253,-2.59571 -1.34979,0.74569 c 1.56782,-0.86722 3.06087,-1.73484 4.46278,-3.09542 1.51891,-1.47413 2.42707,-3.1623 3.04271,-4.63847 1.62431,-3.89479 1.4842,-8.02162 0.30334,-11.56519 -1.18076,-3.54326 -3.6645,-7.174841 -7.84914,-8.915733 -2.28523,-0.950698 -4.49912,-1.035389 -6.30297,-0.934826 -1.79542,0.100086 -4.00144,0.426048 -6.17947,1.64951 -6.90982,3.881479 -8.91355,12.348199 -6.12934,19.415349 -0.49056,0.5623 -0.87086,1.022 -1.44177,1.65107 -2.22782,2.45477 -5.20738,5.45079 -5.88078,6.02702 -1.66638,1.42591 -2.64899,1.9011 -3.11919,2.09651 -0.42267,-0.45445 -1.64804,-1.62312 -2.86856,-4.27777 -1.76594,-3.84095 -3.11664,-7.9079 -6.21512,-19.10426 l -1.89808,-6.859534 -0.29146,0.342614 c 3.37215,-3.969578 5.09683,-8.988634 4.08399,-13.965039 C 118.83189,76.89017 112.9483,71.82588 106.00336,71.77297 Z m -52.739418,68.17975 c 0.01215,-0.006 0.0095,-0.0109 -0.0026,-0.006 0.0021,-9.1e-4 0.0015,0.004 0.0026,0.006 z"
       id="path6098"
       inkscape:connector-curvature="0" />
    <path
       style="color:#000000;font-style:normal;font-variant:normal;font-weight:normal;font-stretch:normal;font-size:medium;line-height:normal;font-family:sans-serif;font-variant-ligatures:normal;font-variant-position:normal;font-variant-caps:normal;font-variant-numeric:normal;font-variant-alternates:normal;font-feature-settings:normal;text-indent:0;text-align:start;text-decoration:none;text-decoration-line:none;text-decoration-style:solid;text-decoration-color:#000000;letter-spacing:normal;word-spacing:normal;text-transform:none;writing-mode:lr-tb;direction:ltr;text-orientation:mixed;dominant-baseline:auto;baseline-shift:baseline;text-anchor:start;white-space:normal;shape-padding:0;clip-rule:nonzero;display:inline;overflow:visible;visibility:visible;opacity:1;isolation:auto;mix-blend-mode:normal;color-interpolation:sRGB;color-interpolation-filters:linearRGB;solid-color:#000000;solid-opacity:1;vector-effect:none;fill:#f9f9f9;fill-opacity:1;fill-rule:nonzero;stroke:none;stroke-width:7;stroke-linecap:butt;stroke-linejoin:miter;stroke-miterlimit:4;stroke-dasharray:none;stroke-dashoffset:0;stroke-opacity:1;color-rendering:auto;image-rendering:auto;shape-rendering:auto;text-rendering:auto;enable-background:accumulate"
       d="m 105.97648,75.272989 c -2.99843,-0.0229 -5.83628,1.171304 -7.767489,3.251982 -1.931207,2.080678 -2.934965,4.938755 -2.923852,7.980881 0.01369,3.738457 1.543531,7.122258 4.398182,10.030912 l 0.892969,0.910021 -0.0724,0.390676 c -0.534607,2.876169 -4.343006,16.584659 -5.699395,20.353799 -1.437796,3.99532 -2.965053,7.27441 -4.398182,9.61698 -1.433129,2.34257 -2.86212,3.66989 -3.404444,3.95325 -1.024964,0.53554 -3.440742,0.33557 -6.931877,-2.5585 -1.075981,-0.89197 -4.218178,-4.20675 -6.707084,-7.12101 -1.224989,-1.43435 -2.334149,-2.80151 -3.0856,-3.8008 0.132564,-0.22066 0.144888,-0.24654 0.27337,-0.45528 1.733153,-2.81572 2.105967,-6.07917 1.546675,-9.07438 -0.559292,-2.9952 -2.090262,-5.9207 -4.939234,-7.63674 -5.105717,-3.075317 -11.7063,-1.07625 -14.882812,3.97082 -1.028146,1.63346 -1.548742,3.72199 -1.548742,6.32054 0,2.59201 0.498858,4.64958 1.519287,6.34742 0.966017,1.60732 2.245865,2.67855 3.644738,3.58996 0.988031,0.64373 2.058069,1.12292 3.29489,1.418 0.02332,0.83513 0.01927,2.09508 -0.05684,4.65605 -0.211199,7.10641 -0.8773,10.454 -2.325958,13.38471 -0.709546,1.43545 -1.40461,2.03684 -2.162142,2.36161 -0.75753,0.32477 -1.819663,0.44067 -3.523299,-0.0176 -2.133855,-0.57396 -7.093346,-3.03123 -12.154296,-6.38875 -2.642895,-1.75334 -3.560885,-2.52841 -3.631303,-2.50579 0.03115,-0.23714 0.03489,-0.27849 0.10387,-0.75396 0.377281,-2.60043 0.282452,-5.04931 -0.523483,-7.27914 -0.805935,-2.22984 -2.421173,-4.16269 -4.499984,-5.33043 -2.701798,-1.51768 -5.866218,-1.96335 -8.826334,-1.08572 -2.002251,0.59366 -3.364433,1.7375 -4.611088,3.03341 -1.209458,1.25723 -2.272444,2.56385 -2.703194,4.65811 -0.06477,0.0896 -0.213436,0.20982 -0.257865,0.28112 -0.339374,0.54459 -0.428985,0.8908 -0.513664,1.21078 -0.169358,0.63996 -0.20929,1.15943 -0.20929,1.74046 0,0.61761 0.05003,1.17084 0.257866,1.85725 0.103918,0.34321 0.221883,0.72395 0.613399,1.27331 0.01816,0.0255 0.07494,0.0647 0.0956,0.092 0.2316,1.04223 0.601931,1.86813 1.064535,2.69906 0.658483,1.18277 1.369814,2.27905 2.568319,3.28559 2.423356,2.03524 5.238567,2.78855 8.283215,2.48822 0.08867,0.1998 0.130065,0.25832 0.236678,0.51728 0.606966,1.47432 1.491241,3.88779 2.7342,7.45691 1.906046,5.47316 11.295204,31.35972 16.9354,46.77187 v 38.5563 h 0.273368 c 1.013381,30.99378 27.625389,55.75445 60.11158,55.75435 32.48619,1e-4 59.09976,-24.76056 60.11313,-55.75435 h 0.27337 v -37.41166 c 1.20833,-3.22002 2.50844,-6.68059 3.35173,-8.9023 1.20025,-3.16213 2.62382,-7.06344 3.23649,-8.89094 0.52261,-1.55882 1.9247,-5.40367 3.04065,-8.31836 1.18933,-3.10637 3.47957,-9.69693 5.18366,-14.89627 4.36673,-13.32345 5.36442,-15.78982 5.42964,-16.0254 0.31099,0.003 0.16218,-0.003 0.65836,0.0253 1.35056,0.078 2.35726,0.1215 3.46284,-0.0393 1.10557,-0.16077 2.1728,-0.60774 2.97862,-1.0604 4.63623,-2.6043 6.00059,-7.95601 5.24981,-12.4318 -0.75076,-4.47578 -3.94152,-9.1228 -9.24594,-9.60716 -2.86605,-0.2617 -5.71269,0.55619 -7.85379,2.30632 -2.14109,1.75012 -3.5386,4.30274 -4.17183,7.20524 -0.31433,1.44078 -0.1521,2.31288 -0.002,3.49591 0.0889,0.70102 0.28559,1.46584 0.44545,2.2133 -0.66137,0.53347 -1.89969,1.41155 -4.16771,2.82774 -8.67517,5.41692 -11.37962,6.72118 -12.93771,7.03161 -1.98297,0.39508 -2.79577,0.13815 -3.69124,-0.62735 -0.89546,-0.76551 -1.97368,-2.55463 -2.72645,-5.7304 -0.54212,-2.28707 -0.67527,-3.83248 -0.72657,-9.18342 l -0.045,-4.68344 0.47439,-0.26199 c 1.5159,-0.83848 2.67579,-1.53096 3.7207,-2.54507 1.04491,-1.0141 1.74824,-2.27111 2.24999,-3.4742 1.25781,-3.01599 1.1644,-6.25633 0.21291,-9.11159 -0.95149,-2.85526 -2.82659,-5.52343 -5.87303,-6.7908 -1.65463,-0.68836 -3.19123,-0.75945 -4.76353,-0.6718 -1.5723,0.0876 -3.08738,0.32316 -4.66018,1.20665 -5.85088,3.28663 -7.16255,10.97619 -3.70727,16.9416 -0.0208,0.0254 -0.0251,0.0324 -0.0465,0.0584 -0.73175,0.88889 -1.79166,2.10207 -2.93987,3.36724 -2.2964,2.53033 -5.09211,5.38849 -6.19704,6.33398 -3.39397,2.90421 -5.32171,3.34419 -6.41201,3.04891 -1.09029,-0.29529 -2.97959,-1.9652 -5.03122,-6.42752 -1.87656,-4.08156 -3.29817,-8.39414 -6.40839,-19.63291 l -2.39262,-8.646499 0.90847,-1.068668 c 2.84117,-3.344169 4.09519,-7.204358 3.32228,-11.001912 -1.0554,-5.185483 -5.54997,-9.032262 -10.80089,-9.072272 z"
       id="path4629"
       inkscape:connector-curvature="0" />
    <path
       style="opacity:1;fill:#000000;stroke-width:0.37953818"
       d="m 105.94885,78.772791 c -4.23039,-0.0323 -7.182161,3.148062 -7.165461,7.719914 0.0113,3.089283 0.87791,5.025861 3.397211,7.592822 l 2.16834,2.209683 -0.40566,2.181262 c -0.67369,3.624438 -4.318361,16.652638 -5.846671,20.899498 -2.99337,8.31795 -6.3949,13.87816 -9.47487,15.48743 -2.81991,1.47341 -6.726581,0.39895 -10.78539,-2.96571 -3.16612,-2.62464 -11.986245,-12.95216 -11.632365,-13.62036 0.14413,-0.27214 0.758384,-1.30047 1.364774,-2.28565 2.37181,-3.8533 1.265178,-9.77981 -2.217952,-11.87783 -3.27441,-1.97226 -7.906015,-0.6735 -10.115145,2.83653 -0.87546,1.39088 -1.009757,1.98325 -1.009757,4.45502 0,2.45923 0.139946,3.08395 1.018025,4.54494 1.0475,1.74289 3.917314,3.61295 5.557284,3.62045 0.43339,0.002 1.065109,0.30943 1.404048,0.68265 0.5477,0.60312 0.594727,1.41124 0.420647,7.26829 -0.21695,7.29994 -0.942201,11.30357 -2.686141,14.83165 -1.96174,3.96871 -5.250475,5.37862 -9.733257,4.17287 -3.000859,-0.80716 -7.935709,-3.37274 -13.179039,-6.85126 -5.819571,-3.8608 -5.522796,-3.46905 -5.057055,-6.67918 0.637598,-4.39467 -0.480287,-7.48742 -3.273187,-9.05629 -1.909238,-1.07248 -4.163396,-1.36018 -6.117455,-0.78083 -1.977281,0.58626 -4.600932,3.31348 -4.929931,5.12475 -0.124661,0.68631 -0.369051,1.24799 -0.543121,1.24799 -0.174058,0 -0.316259,0.53763 -0.316259,1.19476 0,0.65713 0.162804,1.19475 0.361736,1.19475 0.19894,0 0.361733,0.27611 0.361733,0.6134 0,1.14119 1.433343,3.71583 2.626715,4.71806 1.44481,1.21341 4.279601,1.9709 6.23476,1.66605 0.795729,-0.12406 1.628593,-0.0915 1.850533,0.0723 0.655262,0.48383 1.720424,3.07158 4.221964,10.25467 1.881455,5.40254 11.521689,31.98365 17.131255,47.30621 v 35.67328 h 0.265618 a 56.7085,54.065307 0 0 0 -0.08888,1.68724 56.7085,54.065307 0 0 0 56.708683,54.06556 56.7085,54.065307 0 0 0 56.70868,-54.06556 56.7085,54.065307 0 0 0 -0.0625,-1.68724 h 0.23923 v -34.54983 c 1.27631,-3.40255 2.67753,-7.12702 3.58066,-9.5064 1.18609,-3.12481 2.62152,-7.06762 3.18947,-8.76174 0.56797,-1.69412 1.95911,-5.49979 3.09128,-8.45685 1.13218,-2.95707 3.43868,-9.58804 5.12579,-14.73556 4.65394,-14.19975 5.56413,-16.85275 6.09162,-17.75242 0.44232,-0.75449 0.7503,-0.81146 3.52484,-0.65113 2.5741,0.14877 3.26724,0.048 4.52376,-0.65784 6.08072,-3.41573 4.15678,-14.8854 -2.60036,-15.50241 -4.1315,-0.37724 -7.28945,2.20403 -8.28631,6.77323 -0.20483,0.93887 0.10335,3.36804 0.70486,5.55677 0.27155,0.98804 -0.96294,2.05869 -5.99653,5.20174 -8.71986,5.44483 -11.66543,7.01043 -14.10612,7.49671 -5.41836,1.07953 -8.81047,-1.82019 -10.5084,-8.98344 -0.60386,-2.54752 -0.7682,-4.54298 -0.8201,-9.95649 l -0.0651,-6.77065 2.30064,-1.27227 c 2.86539,-1.58492 3.59594,-2.29396 4.43384,-4.3031 1.73555,-4.16151 -0.14902,-9.81686 -3.77393,-11.32489 -1.65837,-0.68991 -4.81869,-0.51388 -6.36551,0.35502 -4.17678,2.34623 -5.17841,7.67279 -2.32337,12.35635 0.46496,0.76273 0.84543,1.66152 0.84543,1.99729 0,0.71397 -7.95052,9.47443 -10.85102,11.95638 -7.53768,6.44996 -12.43897,5.12243 -16.89819,-4.57647 -1.98857,-4.32519 -3.48011,-8.87892 -6.60218,-20.16052 l -2.88716,-10.433991 2.10788,-2.480985 c 2.51639,-2.961891 3.17407,-5.026448 2.56108,-8.038269 -0.79174,-3.890019 -3.5656,-6.241194 -7.39799,-6.270394 z"
       id="path3691"
       inkscape:connector-curvature="0"
       inkscape:export-xdpi="96"
       inkscape:export-ydpi="96" />
    <path
       style="opacity:1;fill:#ffffff;stroke-width:0.13408902"
       d="m 112.86149,247.55826 c -3.32202,-0.62363 -5.29299,-1.22113 -7.45205,-2.25909 -4.28427,-2.05965 -7.476203,-5.16803 -9.636668,-9.38442 -1.329571,-2.5948 -2.048133,-5.70756 -2.197714,-9.52032 l -0.08943,-2.27951 -9.244805,-0.0345 c -7.191475,-0.0268 -9.268314,-0.0715 -9.350655,-0.20114 -0.136321,-0.21465 -0.136746,-0.92257 -6.59e-4,-1.13678 0.07877,-0.12401 1.113288,-0.1745 4.121184,-0.20114 l 4.016003,-0.0356 0.03376,-37.10914 c 0.01857,-20.41003 0.01857,-37.12205 0,-37.13776 -0.01857,-0.0157 -1.874133,-0.061 -4.123476,-0.10057 l -4.089716,-0.072 -0.04016,-0.54795 c -0.02567,-0.35022 0.02811,-0.6046 0.149032,-0.70496 0.141166,-0.11716 2.363877,-0.14826 8.755947,-0.1225 l 8.566754,0.0345 0.03386,25.57505 0.03387,25.57503 0.329124,0.0826 c 0.181018,0.0454 0.47753,0.0315 0.658915,-0.031 0.404501,-0.13941 21.051804,-17.96373 21.111844,-18.22535 0.0357,-0.15575 -0.5588,-0.19303 -3.55336,-0.22278 l -3.59628,-0.0357 v -0.67044 -0.67045 h 8.24648 8.24647 v 0.67045 0.67044 l -3.2202,0.067 -3.22021,0.0671 -4.75809,4.08698 c -2.61696,2.24786 -6.29677,5.40633 -8.17737,7.01885 -1.8806,1.61251 -3.47422,3.0086 -3.54139,3.10241 -0.0866,0.12096 0.97678,1.49741 3.65705,4.73365 2.07853,2.5097 3.86411,4.63359 3.96793,4.71976 0.14672,0.12177 0.42912,0.0807 1.26759,-0.18412 5.28511,-1.66956 11.88631,-1.31314 16.67741,0.90049 2.92589,1.35184 5.30183,3.66869 6.19459,6.04052 0.41496,1.10244 0.66194,2.85239 0.55867,3.95831 -0.16609,1.77862 -1.28295,3.29897 -2.88296,3.9245 -1.11281,0.43507 -3.35091,0.43809 -4.60296,0.006 -1.13202,-0.39044 -1.87025,-0.92255 -2.19911,-1.58507 -0.39123,-0.78819 -0.33158,-2.45921 0.14298,-4.00474 0.82111,-2.67419 0.89324,-3.03699 0.83973,-4.2238 -0.0332,-0.73528 -0.13397,-1.29694 -0.28409,-1.58268 -0.6081,-1.15737 -2.19596,-2.17563 -4.26398,-2.7344 -1.54733,-0.41807 -4.62236,-0.4162 -6.6816,0.004 -1.34394,0.27428 -3.09298,0.98739 -3.17875,1.29602 -0.0382,0.13752 13.87114,17.0288 14.27146,17.33101 0.15652,0.11816 0.8672,0.16761 2.40887,0.16761 h 2.18683 v 0.73749 0.73749 h -11.9866 c -13.09997,0 -12.14941,0.0577 -12.14941,-0.73749 0,-0.76552 -0.14384,-0.73749 3.78448,-0.73749 3.4431,0 3.61853,-0.0121 3.55755,-0.2453 -0.11022,-0.42146 -6.99199,-8.72945 -7.20499,-8.69818 -0.23868,0.035 -0.55515,1.31126 -0.86161,3.47464 -0.32975,2.32778 -0.48154,4.85506 -0.4819,8.02325 -10e-4,11.07321 2.11664,17.08057 7.01231,19.89036 2.07372,1.19018 5.4941,1.66616 8.94396,1.24465 4.33802,-0.53004 7.63064,-2.2991 9.91054,-5.32477 0.80517,-1.06853 1.88929,-3.0594 1.88929,-3.46947 0,-0.12421 0.0575,-0.28334 0.12776,-0.35361 0.0702,-0.0703 0.27611,-0.5198 0.45743,-0.99896 l 0.32966,-0.87119 0.61711,0.009 c 0.92857,0.0129 0.98114,0.14111 0.55701,1.35891 -0.96404,2.76804 -2.43557,5.11887 -4.2637,6.81144 -1.79229,1.65939 -4.38021,3.12259 -6.67515,3.77411 -1.24064,0.35221 -1.37868,0.36244 -5.29651,0.39275 -2.21247,0.0171 -4.17352,0.003 -4.3579,-0.0318 z M 93.725736,221.83541 c 0.221777,-1.38644 0.677934,-3.25647 1.063021,-4.3579 0.928977,-2.65705 2.939481,-5.96664 4.907467,-8.07842 0.539616,-0.57905 0.962006,-1.1071 0.938626,-1.17346 -0.0234,-0.0664 -1.63702,-2.05757 -3.585874,-4.42491 l -3.543372,-4.30425 -0.546342,0.0401 -0.546344,0.0401 -0.03463,11.33052 c -0.01905,6.23179 -0.0045,11.40944 0.03229,11.5059 0.04434,0.1162 0.259423,0.16145 0.637409,0.13409 l 0.570491,-0.0413 z m 34.661474,15.37726 c -0.166,-0.0659 -0.19448,-0.14698 -0.10262,-0.29228 0.0745,-0.11773 0.12712,-2.34125 0.12712,-5.36353 0,-3.02228 -0.0527,-5.2458 -0.12712,-5.36353 -0.16495,-0.26093 0.12632,-0.38034 0.95832,-0.39287 0.82746,-0.0125 1.05015,0.0881 1.05015,0.47423 0,0.35558 0.32694,0.44243 0.45076,0.11974 0.0425,-0.11062 0.13738,-0.20113 0.21095,-0.20113 0.0736,0 0.0139,0.20312 -0.13254,0.45139 -0.54684,0.92681 -0.63181,4.2369 -0.13273,5.16947 0.10607,0.1982 0.0863,0.24444 -0.0983,0.23004 -0.20919,-0.0163 -0.23454,0.20129 -0.26776,2.29788 -0.0215,1.35573 0.0187,2.41928 0.0967,2.56522 0.11397,0.21298 0.0729,0.26142 -0.28177,0.33235 -0.5282,0.10564 -1.45287,0.0914 -1.75116,-0.027 z m -21.8451,-4.3295 c -0.34134,-0.0509 -0.74395,-0.15862 -0.89471,-0.2393 -0.43892,-0.23491 -0.83125,-0.8229 -0.83125,-1.24584 0,-0.9435 0.74026,-1.5564 2.48638,-2.0586 1.19743,-0.34439 1.49479,-0.5357 1.67328,-1.07652 0.24661,-0.74723 0.0608,-1.86593 -0.36555,-2.20132 -0.42663,-0.33559 -0.72618,-0.34203 -1.11887,-0.0241 -0.25763,0.20862 -0.30066,0.36169 -0.27994,0.99589 0.0209,0.64019 -0.0194,0.78012 -0.27661,0.96029 -0.67381,0.47196 -1.58233,0.10538 -1.58233,-0.63844 0,-0.56644 0.29265,-0.9635 0.98101,-1.33103 0.46728,-0.24949 0.77384,-0.29959 1.83486,-0.2999 1.44917,-4e-4 1.98335,0.21184 2.51371,0.99885 0.28536,0.42344 0.30216,0.58102 0.30216,2.83342 0,2.6812 0.0799,3.07294 0.6269,3.07294 0.49031,0 0.23454,0.23772 -0.29168,0.27109 -1.13291,0.0718 -1.41147,0.002 -1.88262,-0.46866 l -0.46575,-0.46574 0.0763,-1.31094 c 0.0985,-1.69281 0.031,-1.7933 -0.87359,-1.30094 -0.94917,0.51661 -1.21223,0.92034 -1.21223,1.86053 0,0.63381 0.0559,0.81234 0.34508,1.10148 0.2867,0.2867 0.42847,0.33202 0.83805,0.2679 0.41196,-0.0645 0.44947,-0.0522 0.22823,0.0746 -0.41074,0.23547 -1.14945,0.32596 -1.83083,0.22428 z m 26.32811,-0.35416 c 0.50196,-0.53216 0.63949,-1.21706 0.63949,-3.18462 0,-2.09137 -0.1367,-2.66161 -0.7845,-3.27256 l -0.48756,-0.45984 0.60325,0.0965 c 2.65654,0.42472 3.77652,3.9261 1.94789,6.08967 -0.41382,0.48961 -1.50594,1.09964 -1.96867,1.09964 -0.29542,0 -0.29504,-0.003 0.0502,-0.36874 z m -18.69451,-2.99489 c 0.0269,-2.14924 -0.007,-3.28747 -0.10271,-3.4022 -0.11001,-0.13255 -0.0457,-0.1919 0.27809,-0.25665 1.12923,-0.22585 1.86263,-0.0196 1.86263,0.52388 0,0.40472 0.14612,0.41946 0.48174,0.0486 0.43026,-0.47544 1.01685,-0.69926 1.81355,-0.69201 0.84709,0.008 1.19737,0.15127 1.82968,0.74981 l 0.43753,0.41416 0.39359,-0.43093 c 0.49561,-0.54262 0.9594,-0.72263 1.8409,-0.71448 0.90665,0.008 1.53391,0.28091 1.93239,0.83962 0.30972,0.43426 0.32331,0.55149 0.36707,3.16626 0.0253,1.51097 0.0996,2.7153 0.16761,2.7153 0.0672,0 0.12217,0.0603 0.12217,0.13409 0,0.08 -0.51401,0.13409 -1.27384,0.13409 -1.23667,0 -1.42811,-0.0603 -1.13192,-0.35646 0.0935,-0.0935 0.1278,-1.09107 0.10056,-2.92183 -0.0407,-2.73645 -0.0463,-2.7839 -0.35791,-3.03598 -0.17411,-0.14085 -0.47581,-0.25586 -0.67045,-0.25559 -0.48658,6.6e-4 -1.20496,0.46447 -1.3629,0.87987 -0.17514,0.46066 -0.17215,5.24631 0.003,5.35477 0.37258,0.23027 0.0157,0.33522 -1.13975,0.33522 -1.15548,0 -1.51234,-0.10495 -1.13976,-0.33522 0.0823,-0.0508 0.13409,-1.13512 0.13409,-2.8057 0,-2.55157 -0.0175,-2.74505 -0.27791,-3.07613 -0.4766,-0.6059 -1.55167,-0.40113 -1.97814,0.37677 -0.18156,0.33118 -0.2331,0.8816 -0.26899,2.87275 -0.0296,1.64334 0.004,2.51132 0.10057,2.60803 0.2965,0.2965 0.11634,0.35951 -1.02832,0.35963 l -1.17328,1.2e-4 0.0404,-3.22979 z m -6.07437,-53.40358 c -0.94566,-0.44164 -1.4676,-0.92395 -1.86683,-1.72509 -0.85807,-1.72192 -0.11753,-3.81623 1.6731,-4.73168 0.69551,-0.35558 1.85411,-0.60439 1.41952,-0.30485 -0.756,0.52109 -0.90233,0.7073 -1.10576,1.40705 -0.16678,0.57372 -0.20436,1.14283 -0.161,2.43833 0.0628,1.87761 0.20033,2.29785 0.94341,2.88346 0.43279,0.34107 0.43412,0.34553 0.10322,0.34571 -0.18437,9e-5 -0.63692,-0.14073 -1.00566,-0.31293 z m 2.44978,-0.0328 c 0.80741,-0.63631 0.90019,-0.96619 0.90138,-3.20486 0.001,-2.2934 -0.18173,-2.90903 -0.97623,-3.28518 -0.57576,-0.27258 -0.54132,-0.45287 0.0648,-0.33917 2.79844,0.52499 4.04293,3.662 2.31718,5.84094 -0.44801,0.56566 -1.83463,1.3377 -2.39824,1.33529 l -0.34733,-0.001 0.43845,-0.34554 z m 6.55999,0.0841 c -1.50459,-0.58788 -2.23698,-1.64414 -2.23402,-3.2219 0.003,-1.73281 1.17203,-3.23709 2.7992,-3.60269 0.6958,-0.15633 0.77715,-0.054 0.2417,0.30407 -0.7036,0.4705 -0.91153,1.28354 -0.86076,3.36567 0.045,1.84651 0.15799,2.2546 0.78641,2.84133 0.17298,0.16151 0.46533,0.35379 0.64966,0.4273 0.30744,0.12259 0.2908,0.13382 -0.2012,0.13587 -0.295,0.001 -0.82644,-0.11112 -1.18099,-0.24965 z m -20.474389,0.004 c 0,-0.0694 0.06034,-0.16347 0.13409,-0.20905 0.209775,-0.12965 0.178929,-6.1916 -0.03218,-6.32207 -0.216687,-0.13392 0.310468,-0.28404 1.060392,-0.30197 0.816467,-0.0195 0.983114,0.0816 0.983114,0.59646 0,0.62158 0.218901,0.69387 0.715554,0.23631 0.682899,-0.62915 0.821559,-0.70671 1.485119,-0.83067 0.78185,-0.14607 1.64545,0.0328 2.06939,0.4285 0.64137,0.5987 0.69123,0.85581 0.69123,3.56413 0,1.55298 0.0523,2.57877 0.13409,2.62931 0.36746,0.2271 0.0215,0.33522 -1.07271,0.33522 -1.0942,0 -1.44018,-0.10812 -1.07271,-0.33522 0.18014,-0.11134 0.17445,-4.81056 -0.007,-5.46255 -0.15916,-0.5731 -0.44682,-0.77259 -1.11404,-0.77259 -0.685467,0 -1.243673,0.52669 -1.50276,1.41792 -0.163098,0.56104 -0.200957,1.2233 -0.167984,2.93853 l 0.04256,2.21427 -1.173279,-1.3e-4 c -0.645304,-1e-4 -1.173279,-0.057 -1.173279,-0.12636 z m 26.549629,0 c 0,-0.0694 0.0603,-0.16347 0.13409,-0.20905 0.20558,-0.12706 0.18152,-10.88311 -0.0246,-11.01052 -0.42989,-0.26568 1.42426,-0.44152 1.91068,-0.1812 0.24658,0.13197 0.25936,0.31701 0.25936,3.75449 0,2.6062 0.0425,3.61569 0.15208,3.61569 0.28916,0 2.65377,-2.28368 2.57559,-2.48743 -0.0556,-0.1448 0.0348,-0.19435 0.35461,-0.19435 0.42911,0 0.42902,1.3e-4 -0.55347,0.92049 -0.76984,0.72113 -0.95126,0.96073 -0.83766,1.10624 0.0797,0.10215 0.84735,1.09787 1.70577,2.21269 0.85845,1.11483 1.65211,2.10274 1.76372,2.19537 0.40195,0.33359 0.17933,0.40375 -1.28109,0.40375 -1.35444,0 -1.47749,-0.0206 -1.40926,-0.23553 0.0508,-0.16021 -0.29335,-0.70694 -1.07632,-1.70964 -0.63309,-0.81075 -1.21065,-1.49586 -1.28347,-1.52245 -0.0843,-0.0308 -0.11623,0.59073 -0.0879,1.70983 l 0.0445,1.75817 -1.17328,-1.3e-4 c -0.64531,-1.1e-4 -1.17328,-0.057 -1.17328,-0.12637 z m -2.33916,-0.71189 c 0.21603,-0.23968 0.4459,-0.49613 0.51081,-0.56988 0.0649,-0.0738 0.0425,0.0168 -0.0497,0.20114 -0.2213,0.44228 -0.54346,0.80453 -0.7155,0.80453 -0.0761,0 0.0384,-0.1961 0.2544,-0.43579 z m -1.21926,-3.91101 c -0.17634,-0.26913 -0.18673,-0.41942 -0.0612,-0.88564 0.18661,-0.69303 0.12574,-0.86246 -0.43209,-1.20256 l -0.44029,-0.26845 0.40227,2.7e-4 c 1.26309,7.8e-4 2.34656,0.78927 2.34656,1.70772 0,0.68208 -0.3128,0.97281 -1.04666,0.97281 -0.44027,0 -0.6005,-0.0676 -0.76861,-0.32413 z"
       id="path6112"
       inkscape:connector-curvature="0" />
    <g
       aria-label="THAPAR UNIVERSITY"
       style="font-style:normal;font-variant:normal;font-weight:normal;font-stretch:normal;font-size:9.09072399px;line-height:1.25;font-family:AppleMyungjo;-inkscape-font-specification:AppleMyungjo;letter-spacing:0.02116667px;word-spacing:0.2619375px;opacity:1;fill:#f9f9f9;fill-opacity:1;stroke:none;stroke-width:0.2272681"
       id="text6121"
       transform="translate(32.279167,183.6209)">
      <path
         d="m 34.144096,75.568945 2.073253,-1.35914 3.182736,4.264678 -1.908812,1.579482 -0.185659,-0.248773 q 1.587683,-1.550088 0.818522,-2.580719 -0.137919,-0.184803 -0.272652,-0.217051 -0.12232,-0.03044 -0.300015,0.10217 l -4.200708,3.134995 q -0.248773,0.185659 -0.01537,0.498403 l 0.397842,0.533084 -0.270097,0.201574 -1.824768,-2.445083 0.270096,-0.201573 0.450888,0.604163 q 0.180355,0.241665 0.400696,0.07722 l 4.264679,-3.182737 q 0.270096,-0.201573 0.01548,-0.542747 -0.753248,-1.009307 -2.699838,0.04504 z"
         style="fill:#f9f9f9"
         id="path6167"
         inkscape:connector-curvature="0" />
      <path
         d="m 38.831005,78.395525 0.241058,-0.235531 1.952426,1.998246 -0.241058,0.235531 -0.353296,-0.361587 q -0.20454,-0.20934 -0.330249,-0.185711 -0.119366,0.01743 -0.366767,0.259159 l -1.44635,1.413185 2.094984,2.144149 1.44635,-1.413184 q 0.253745,-0.247927 0.27394,-0.366856 0.02019,-0.11893 -0.196742,-0.340957 l -0.328503,-0.336213 0.241058,-0.23553 1.946228,1.991902 -0.241058,0.23553 -0.359495,-0.36793 q -0.192143,-0.196653 -0.336883,-0.15443 -0.138397,0.03603 -0.385798,0.277755 l -3.374815,3.29743 q -0.222028,0.216937 -0.247984,0.291897 -0.06489,0.1874 0.176838,0.434801 l 0.322305,0.32987 -0.241058,0.23553 -1.946228,-1.991902 0.241058,-0.235531 0.328504,0.336213 q 0.173549,0.177622 0.305165,0.18542 0.144158,0.0079 0.429622,-0.270974 l 1.636658,-1.59913 -2.094984,-2.144149 -1.655689,1.617724 q -0.190309,0.185945 -0.235297,0.2795 -0.08997,0.187109 0.08358,0.364731 l 0.409079,0.41868 -0.241058,0.235531 -1.952426,-1.998246 0.241058,-0.235531 0.371891,0.380618 q 0.13636,0.13956 0.274465,0.128619 0.144304,-0.0046 0.410737,-0.264922 l 3.393846,-3.316025 q 0.247402,-0.241729 0.267596,-0.360658 0.02654,-0.125127 -0.1842,-0.340811 z"
         style="fill:#f9f9f9"
         id="path6169"
         inkscape:connector-curvature="0" />
      <path
         d="m 40.778716,87.438584 5.153191,-3.059898 0.232499,0.177776 -1.767647,6.195674 q -0.115193,0.369669 0.237077,0.639027 l 0.162044,0.123904 -0.204712,0.267726 -2.078392,-1.589214 0.204712,-0.267725 0.169089,0.129292 q 0.549541,0.420199 0.716543,0.201792 0.04849,-0.06341 0.06879,-0.148366 l 0.421402,-1.44179 -2.064301,-1.578439 -0.729775,0.457968 q -0.192701,0.120605 -0.232069,0.15749 -0.108989,0.08413 -0.189797,0.189813 -0.118517,0.154999 -0.04101,0.404063 0.08455,0.254451 0.373414,0.475324 l 0.176135,0.134679 -0.204712,0.267726 -1.888167,-1.44376 0.204713,-0.267725 0.05636,0.0431 q 0.486132,0.371714 1.224611,-0.06843 z m 3.413626,0.879666 0.86352,-3.01288 -2.702369,1.60683 z"
         style="fill:#f9f9f9"
         id="path6171"
         inkscape:connector-curvature="0" />
      <path
         d="m 47.968377,86.53204 0.168287,-0.291999 2.797042,1.61201 q 0.922102,0.531432 1.193369,1.250779 0.275696,0.711662 -0.136164,1.42629 -0.411859,0.714629 -1.205438,0.830513 -0.781466,0.112628 -1.72662,-0.43209 l -1.014312,-0.584575 -1.116007,1.936414 q -0.19043,0.330419 0.178411,0.542992 l 0.645471,0.372003 -0.168287,0.291999 -2.7202,-1.567725 0.168287,-0.291999 0.560945,0.323288 q 0.33042,0.19043 0.472135,-0.05546 l 2.604017,-4.518299 q 0.19043,-0.33042 -0.178411,-0.542992 z m 1.506602,1.328937 -1.262151,2.189992 0.776102,0.447289 q 0.729997,0.420717 1.205651,0.305862 0.487767,-0.118111 0.899627,-0.83274 0.434003,-0.75305 0.242043,-1.201486 -0.16357,-0.391128 -0.978093,-0.86056 -0.391893,-0.225858 -0.521615,-0.249438 -0.224278,-0.03713 -0.361564,0.201081 z"
         style="fill:#f9f9f9"
         id="path6173"
         inkscape:connector-curvature="0" />
      <path
         d="m 51.243871,94.168994 4.204742,-4.270656 0.270088,0.112751 -0.132608,6.441534 q -0.01732,0.386813 0.391906,0.557647 l 0.188243,0.07858 -0.129834,0.311009 -2.414417,-1.00792 0.129834,-0.31101 0.196427,0.082 q 0.638388,0.2665 0.744305,0.01278 0.03075,-0.07366 0.02876,-0.160987 l 0.04058,-1.501563 -2.398048,-1.001087 -0.58919,0.628619 q -0.15566,0.165677 -0.184345,0.211368 -0.08399,0.1091 -0.135238,0.231867 -0.07517,0.180058 0.06318,0.401194 0.146528,0.224553 0.482091,0.364637 l 0.204611,0.08542 -0.129833,0.311009 -2.193437,-0.91567 0.129834,-0.311009 0.06548,0.02733 q 0.564728,0.235751 1.16687,-0.37785 z m 3.525099,-0.01809 0.06829,-3.133441 -2.204436,2.241687 z"
         style="fill:#f9f9f9"
         id="path6175"
         inkscape:connector-curvature="0" />
      <path
         d="m 59.103383,94.90625 -0.670506,2.473886 q -0.0812,0.299605 0.252643,0.390089 l 0.676252,0.183287 -0.08816,0.325286 -2.944695,-0.798111 0.08816,-0.325286 0.624891,0.169366 q 0.402328,0.109045 0.483531,-0.190561 l 1.371174,-5.059054 q 0.04872,-0.179763 -0.02688,-0.273765 -0.06704,-0.09168 -0.289605,-0.152005 l -0.624892,-0.169367 0.08816,-0.325286 3.269981,0.886275 q 0.941618,0.25521 1.358663,0.818503 0.417045,0.563294 0.222158,1.282347 -0.157766,0.582091 -0.658258,0.869134 -0.359048,0.205922 -0.813297,0.22064 -0.325127,0.01296 -0.985699,-0.09257 0.546569,0.32273 0.754652,0.572096 0.313284,0.369769 0.303201,0.881619 -0.03849,1.735474 0.261116,1.816678 0.162643,0.04408 0.330327,-0.167762 0.176245,-0.209523 0.287609,-0.620411 l 0.291046,0.07888 q -0.396736,1.463787 -1.475316,1.171456 -0.462248,-0.125285 -0.65425,-0.535694 -0.183442,-0.408089 -0.01639,-1.024421 0.26681,-0.984418 0.10657,-1.478109 -0.186801,-0.565212 -1.008576,-0.787941 z m 0.702988,-2.593728 -0.614824,2.268442 0.753294,0.204168 q 0.838895,0.227369 1.296745,0.02985 0.468731,-0.203762 0.654338,-0.888574 0.225049,-0.830336 -0.148157,-1.216345 -0.265684,-0.274167 -1.121699,-0.506176 -0.385208,-0.104404 -0.447449,-0.112085 -0.302646,-0.03608 -0.372248,0.220723 z"
         style="fill:#f9f9f9"
         id="path6177"
         inkscape:connector-curvature="0" />
      <path
         d="m 66.819279,93.60545 0.02006,-0.336424 3.027818,0.180564 -0.02006,0.336424 -0.602022,-0.0359 q -0.442663,-0.0264 -0.461142,0.283467 l -0.221746,3.718373 q -0.05596,0.938447 0.32436,1.41425 0.389705,0.467478 1.257326,0.519219 0.86762,0.05174 1.381476,-0.370738 0.513856,-0.422479 0.560845,-1.21042 L 72.266231,95.0853 q 0.06864,-1.150925 -0.683893,-1.195802 l -0.256744,-0.01531 0.02006,-0.336425 2.478916,0.147831 -0.02006,0.336424 -0.185918,-0.01109 q -0.823355,-0.0491 -0.875095,0.818519 l -0.192708,3.231444 q -0.06336,1.062392 -0.736165,1.617548 -0.672809,0.555151 -1.832588,0.485991 -2.496622,-0.14889 -2.373606,-2.211697 l 0.237057,-3.975119 q 0.01848,-0.309864 -0.397625,-0.334679 z"
         style="fill:#f9f9f9"
         id="path6179"
         inkscape:connector-curvature="0" />
      <path
         d="m 73.31304,94.019975 -0.02549,-0.336057 1.57416,-0.119404 4.324471,4.830772 -0.281742,-3.714309 q -0.08251,-1.087762 -1.046462,-1.014644 l -0.02482,-0.327213 2.299335,-0.174411 0.02549,0.336056 -0.08844,0.0067 q -0.406806,0.03086 -0.616615,0.313607 -0.209809,0.282749 -0.174256,0.751459 l 0.394439,5.200034 -0.415649,0.03153 -4.490912,-5.031615 0.298512,3.935399 q 0.08117,1.070075 1.186618,0.986223 l 0.02549,0.336048 -2.493894,0.18917 -0.02549,-0.336048 q 0.451024,-0.03421 0.712553,-0.338673 0.261528,-0.304461 0.227317,-0.755484 L 74.361581,94.35848 q -0.295617,-0.262199 -0.305131,-0.270372 -0.168576,-0.111736 -0.442728,-0.09094 z"
         style="fill:#f9f9f9"
         id="path6181"
         inkscape:connector-curvature="0" />
      <path
         d="m 79.936678,93.432228 -0.05813,-0.331972 2.979008,-0.521608 0.05813,0.331971 -0.506693,0.08872 q -0.349444,0.06119 -0.421509,0.163843 -0.06486,0.09239 -0.01744,0.36321 l 0.8566,4.892213 q 0.03671,0.209666 0.08695,0.290909 0.09895,0.153748 0.448395,0.09256 l 0.567847,-0.09943 0.05813,0.331971 -2.979008,0.521609 -0.05813,-0.331972 0.567846,-0.09943 q 0.297027,-0.05201 0.369091,-0.154665 0.07206,-0.102657 0.02159,-0.390948 l -0.856601,-4.892213 q -0.04742,-0.270819 -0.138281,-0.326941 -0.121659,-0.07774 -0.471103,-0.01655 z"
         style="fill:#f9f9f9"
         id="path6183"
         inkscape:connector-curvature="0" />
      <path
         d="m 82.675103,93.049045 -0.0891,-0.32503 2.660117,-0.729224 0.0891,0.32503 -0.538866,0.147721 q -0.410565,0.112549 -0.344911,0.352045 0.0211,0.07698 0.07021,0.155481 0.04676,0.06995 0.137119,0.164727 l 2.822373,3.787616 0.362112,-4.449074 q 0.0076,-0.140025 -0.03696,-0.30254 -0.135997,-0.496099 -0.649202,-0.355413 l -0.427672,0.117239 -0.0891,-0.32503 2.326533,-0.637779 0.0891,0.325031 -0.179622,0.04924 q -0.504652,0.138341 -0.586652,1.080441 l -0.501112,5.820629 -0.316477,0.08676 -3.779996,-5.033278 q -0.177674,-0.245573 -0.362118,-0.314561 -0.184444,-0.06899 -0.458153,0.006 z"
         style="fill:#f9f9f9"
         id="path6185"
         inkscape:connector-curvature="0" />
      <path
         d="m 88.725371,91.376972 -0.126449,-0.312401 4.809333,-1.946649 0.95189,1.997135 -0.279517,0.113138 q -0.533786,-0.845988 -1.03723,-1.12061 -0.503445,-0.274622 -1.111805,-0.02838 l -1.192057,0.482503 q -0.295959,0.119794 -0.172837,0.423974 l 0.87516,2.162144 0.526149,-0.212967 q 0.45216,-0.183018 0.583892,-0.590354 0.131732,-0.407336 -0.114511,-1.015696 l 0.287738,-0.116466 1.141369,2.819831 -0.287738,0.116466 q -0.525762,-1.29893 -1.528734,-0.892962 l -0.485044,0.196329 0.974989,2.408777 q 0.109811,0.271296 0.496202,0.114898 l 0.945424,-0.382675 q 1.537342,-0.622262 0.970669,-2.660504 l 0.295959,-0.119793 0.816439,2.300728 -5.006639,2.026512 -0.126449,-0.312401 0.411054,-0.16638 q 0.443938,-0.179691 0.310834,-0.508534 l -1.949977,-4.817554 q -0.123121,-0.30418 -0.484849,-0.157765 z"
         style="fill:#f9f9f9"
         id="path6187"
         inkscape:connector-curvature="0" />
      <path
         d="m 96.766382,91.143137 1.218637,2.254909 q 0.147586,0.273085 0.451882,0.108633 l 0.616394,-0.333123 0.160236,0.296493 -2.684044,1.450558 -0.160236,-0.296493 0.569579,-0.307822 q 0.366715,-0.198186 0.219129,-0.471272 l -2.492092,-4.611249 q -0.08855,-0.163852 -0.208112,-0.179887 -0.111759,-0.02025 -0.314623,0.08938 l -0.569579,0.307821 -0.160236,-0.296493 2.980537,-1.610794 q 0.85827,-0.463841 1.548642,-0.342959 0.690372,0.120883 1.044578,0.776289 0.286738,0.530566 0.121796,1.083449 -0.118329,0.396633 -0.437398,0.72029 -0.226702,0.233413 -0.778152,0.612088 0.618487,-0.142708 0.941113,-0.105359 0.481829,0.05212 0.8272,0.430026 1.167897,1.284279 1.440977,1.136693 0.14825,-0.08012 0.12381,-0.349187 -0.0166,-0.273286 -0.21904,-0.647804 l 0.26529,-0.143369 q 0.72106,1.334219 -0.26205,1.865528 -0.42133,0.227704 -0.84327,0.06256 -0.414129,-0.16936 -0.717734,-0.731137 -0.484925,-0.897282 -0.941224,-1.144666 -0.524828,-0.280918 -1.273863,0.123889 z m -1.277672,-2.364143 1.117436,2.06765 0.686616,-0.371073 q 0.76464,-0.413241 0.960362,-0.871863 0.199308,-0.470642 -0.138031,-1.094838 -0.409024,-0.756838 -0.94547,-0.779443 -0.381459,-0.01564 -1.161705,0.406039 -0.35111,0.189753 -0.40151,0.227073 -0.2442,0.182381 -0.117698,0.416455 z"
         style="fill:#f9f9f9"
         id="path6189"
         inkscape:connector-curvature="0" />
      <path
         d="m 100.84661,89.735721 0.26404,-0.17951 q 0.72511,0.751078 1.60224,0.905476 0.87714,0.154399 1.57392,-0.319306 0.53542,-0.364005 0.66573,-0.913749 0.12532,-0.557079 -0.18384,-1.011819 -0.24433,-0.359392 -0.65825,-0.431895 -0.41891,-0.07984 -0.94346,0.126634 -1.05644,0.41793 -1.53257,0.537865 -0.70438,0.178583 -1.12123,0.05445 -0.48345,-0.14321 -0.867396,-0.707969 -0.473705,-0.696779 -0.333106,-1.468009 0.1406,-0.77123 0.837382,-1.244935 0.38139,-0.259292 0.77186,-0.331711 0.39781,-0.07741 0.88537,-0.02279 l 0.0133,-0.706117 0.26404,-0.179509 1.37331,1.972697 -0.24204,0.16455 q -1.62447,-1.458756 -2.87868,-0.606087 -0.491412,0.334087 -0.607342,0.841882 -0.113581,0.495474 0.165655,0.906207 0.284227,0.418068 0.734817,0.465639 0.34968,0.04111 1.39145,-0.36685 1.0491,-0.412943 1.59006,-0.437529 0.9147,-0.04274 1.44326,0.734724 0.49863,0.733452 0.33632,1.551618 -0.16231,0.818165 -0.95444,1.356693 -0.8288,0.56346 -1.82856,0.449532 l -0.0667,0.785319 -0.26404,0.17951 z"
         style="fill:#f9f9f9"
         id="path6191"
         inkscape:connector-curvature="0" />
      <path
         d="m 102.54958,84.006484 -0.20963,-0.26389 2.36806,-1.881182 0.20963,0.26389 -0.40278,0.319966 q -0.27778,0.220667 -0.29205,0.345278 -0.0129,0.11215 0.15816,0.327428 l 3.08933,3.8889 q 0.1324,0.166667 0.21535,0.214045 0.16037,0.08781 0.43815,-0.132854 l 0.45139,-0.358584 0.20963,0.26389 -2.36806,1.881182 -0.20963,-0.26389 0.45139,-0.358583 q 0.23611,-0.187566 0.25039,-0.312178 0.0143,-0.124611 -0.16778,-0.353778 l -3.08933,-3.8889 q -0.17101,-0.215278 -0.27765,-0.221184 -0.14401,-0.01019 -0.42179,0.210477 z"
         style="fill:#f9f9f9"
         id="path6193"
         inkscape:connector-curvature="0" />
      <path
         d="m 106.22305,83.88778 -1.5823,-1.908389 3.88231,-3.639364 1.78289,1.720355 -0.22647,0.212296 q -1.7178,-1.404522 -2.65602,-0.525009 -0.16824,0.157705 -0.18523,0.295198 -0.0166,0.124956 0.13506,0.286719 l 3.58477,3.824074 q 0.2123,0.226468 0.497,-0.04042 l 0.48529,-0.45492 0.23049,0.245879 -2.22585,2.086569 -0.2305,-0.245879 0.55,-0.515577 q 0.21999,-0.206231 0.032,-0.406817 l -3.63936,-3.882308 q -0.2305,-0.24588 -0.54108,0.04527 -0.91881,0.861317 0.34645,2.677895 z"
         style="fill:#f9f9f9"
         id="path6195"
         inkscape:connector-curvature="0" />
      <path
         d="m 108.56057,78.825101 -0.25031,-0.212204 1.85823,-2.191878 0.25707,0.21794 -0.30397,0.358547 q -0.31544,0.372078 -0.13955,0.521195 0.088,0.07456 0.20148,0.07779 l 3.05363,0.402864 -0.91598,-2.334596 q -0.0837,-0.175591 -0.19192,-0.267355 -0.37885,-0.321174 -0.75164,0.118554 l -0.195,0.230012 -0.25707,-0.21794 1.61734,-1.907745 0.25031,0.212204 q -0.28676,0.338253 -0.32558,0.630909 -0.0456,0.286921 0.12223,0.719869 l 1.14821,2.93843 1.57625,1.336315 q 0.25031,0.212205 0.54854,-0.139578 l 0.36133,-0.426199 0.25707,0.21794 -1.94425,2.293354 -0.25708,-0.21794 0.38427,-0.453259 q 0.29249,-0.345018 0.0422,-0.557222 l -1.53567,-1.301903 -3.7285,-0.498289 q -0.26663,-0.02838 -0.45942,0.0756 -0.1928,0.103979 -0.42221,0.374581 z"
         style="fill:#f9f9f9"
         id="path6197"
         inkscape:connector-curvature="0" />
    </g>
  </g>
</svg>
